<?xml version="1.0" standalone="no"?><!DOCTYPE svg PUBLIC "-//W3C//DTD SVG 1.1//EN" "http://www.w3.org/Graphics/SVG/1.1/DTD/svg11.dtd"><svg t="1758704124886" class="icon" viewBox="0 0 1024 1024" version="1.1" xmlns="http://www.w3.org/2000/svg" p-id="20223" xmlns:xlink="http://www.w3.org/1999/xlink" width="200" height="200"><path d="M880.6 458.3c21.2 12.5 35.5 35.6 35.5 62 0 39.8-32.2 72-72 72h-0.5c-38.9 147.4-172.1 256-330.5 256S221.5 739.7 182.6 592.2c-0.9 0-1.8 0.1-2.7 0.1-39.8 0-72-32.2-72-72 0-26.4 14.2-49.4 35.4-62-40.1 8.6-70.2 44.3-70.2 87 0 48.9 39.4 88.6 88.2 89 42.7 156.3 184 271 351.8 271s309.1-114.7 351.8-271c47.9-1.5 86.2-40.7 86.2-89-0.1-42.8-30.3-78.5-70.5-87z" fill="#8a8a8a" p-id="20224"></path><path d="M885.1 442.9c-19.6-81.2-65.3-154.6-129.5-207.9-33.5-27.8-71-49.5-111.5-64.4-1.4-0.5-2.8-1-4.1-1.5-22.6-8-45.8-13.9-69.4-17.5 10.1 4.8 18.6 10.5 25.1 16.8 10 9.5 14.8 19 14.2 28.8 7.3 2.2 14.5 4.6 21.7 7.2 4.3 1.6 8.5 3.2 12.7 5 31.9 13.2 61.5 31.1 88.3 53.3 60.9 50.5 103.5 121.1 119.8 198.7 1.5 7.2 7.2 12.7 14.4 14 33.7 6.1 58.2 35.5 58.2 69.9 0 35.8-26.7 66.1-62.2 70.5-7.3 0.9-13.3 6.1-15.2 13.2-10 36.8-25.8 71.6-46.9 103.3a353.76 353.76 0 0 1-75.8 81.9c-29.7 23.3-62.7 41.4-98 53.9C590.4 881 552 887.5 513 887.5s-77.4-6.5-113.9-19.4c-35.3-12.5-68.3-30.6-98-53.9-29.5-23.1-55-50.7-75.8-81.9-21.1-31.8-36.9-66.5-46.9-103.3-1.9-7.1-7.9-12.3-15.2-13.2-35.5-4.3-62.2-34.6-62.2-70.4 0-34.4 24.5-63.8 58.2-69.9 7.2-1.3 12.9-6.8 14.4-14 16.4-77.6 58.9-148.2 119.8-198.8 30.4-25.1 64.3-44.8 101-58.3 3.4-1.3 6.9-2.5 10.4-3.7 17.1-5.7 34.7-10 52.5-12.9-7.3-4.7-15.1-8.5-22.3-12-6.6-3.3-17.5-8.6-20.5-12 0.5-1.3 1.5-2.8 3-4.4-12 3.1-23.9 6.9-35.6 11.2-1 0.4-2 0.7-3 1.1-39.4 14.9-75.8 36.2-108.5 63.3-64.2 53.3-109.9 126.8-129.5 207.9C96.3 456.4 65 497.7 65 545.4c0 49.8 34.4 92.6 81.8 104 11 36.5 27.3 71 48.5 102.8 22.9 34.4 51 64.8 83.5 90.2 32.8 25.7 69.3 45.7 108.3 59.5 40.4 14.3 82.8 21.5 125.9 21.5s85.5-7.2 125.9-21.4c39-13.8 75.5-33.8 108.3-59.5 32.5-25.4 60.6-55.8 83.5-90.2 21.1-31.8 37.4-66.3 48.5-102.8 47.4-11.4 81.8-54.2 81.8-104.1 0-47.7-31.3-89.1-75.9-102.5z" fill="#8a8a8a" p-id="20225"></path><path d="M362.5 466.3m-37 0a37 37 0 1 0 74 0 37 37 0 1 0-74 0Z" fill="#8a8a8a" p-id="20226"></path><path d="M663.5 466.3m-37 0a37 37 0 1 0 74 0 37 37 0 1 0-74 0Z" fill="#8a8a8a" p-id="20227"></path><path d="M517.3 616.9c-56.6 0-99.3-41-101.1-42.7-7.1-6.9-7.3-18.3-0.3-25.5 6.9-7.1 18.3-7.3 25.4-0.4 0.4 0.3 20 19 47.8 27.9 34.8 11.2 66.9 1.9 95.2-27.5 6.9-7.2 18.3-7.4 25.5-0.4 7.2 6.9 7.4 18.3 0.4 25.5-27.1 28.1-57.8 42.6-91.2 43.1-0.6-0.1-1.2 0-1.7 0z" fill="#8a8a8a" p-id="20228"></path><path d="M616.8 165.1c-14.1 50-99 89.5-126.9 67.8-9.7-7.5 19.9-28-12-56-19.3-16.9-53.7-23.8-59.8-40.3-10.8 6.2-18.4 13.7-21 22-8 25.2 36.9 30.7 59.8 51.3 37.3 33.5-23.7 52.2-23.7 52.2 101.6 46.6 234-30.2 183.6-97z" fill="#8a8a8a" p-id="20229"></path><path d="M500.4 294.4c-26.2 0-51.7-5.4-74.8-15.9-6.8-3.1-11-10.1-10.5-17.6 0.5-7.4 5.5-13.8 12.6-16 0.2-0.1 6.5-2.1 12.9-5.6 7.2-4 9.7-7.3 10.2-8.4-0.2-0.6-1.2-3.2-6.1-7.6-6.4-5.8-16.3-10.6-25.8-15.3-10.4-5.1-20.2-9.9-27.8-16.7-15.8-14.1-13.9-29.9-11.3-38.1 6.5-20.6 29.4-36.9 64.3-45.9 52.8-13.6 130.4-8.5 176.2 34.9 28.8 27.3 33.5 62 12.7 92.8-17 25.1-48.8 44.8-87.4 54-14.9 3.6-30.2 5.4-45.2 5.4z m-23.8-37.9c19.7 3.1 40.4 2.4 60.8-2.5 29-6.9 54.3-21.9 65.9-39.1 10.9-16.1 8.4-31.3-7.6-46.5-25.9-24.6-83.2-41.5-142.4-26.2-22.5 5.8-36.4 15.2-38.8 21.6 3 3.4 13.9 8.7 20.5 12 11.2 5.5 23.9 11.7 34 20.8 18.3 16.4 19.4 31.9 17.2 42-1.6 6.9-5.2 12.9-9.6 17.9z" fill="#8a8a8a" p-id="20230"></path></svg>