<?xml version="1.0" standalone="no"?><!DOCTYPE svg PUBLIC "-//W3C//DTD SVG 1.1//EN" "http://www.w3.org/Graphics/SVG/1.1/DTD/svg11.dtd"><svg t="1758701637794" class="icon" viewBox="0 0 1024 1024" version="1.1" xmlns="http://www.w3.org/2000/svg" p-id="1228" xmlns:xlink="http://www.w3.org/1999/xlink" width="200" height="200"><path d="M99.555556 113.777778m170.666666 0l483.555556 0q170.666667 0 170.666666 170.666666l0 483.555556q0 170.666667-170.666666 170.666667l-483.555556 0q-170.666667 0-170.666666-170.666667l0-483.555556q0-170.666667 170.666666-170.666666Z" fill="#E4DCD5" p-id="1229"></path><path d="M99.555556 113.777778m170.666666 0l483.555556 0q170.666667 0 170.666666 170.666666l0 412.444445q0 170.666667-170.666666 170.666667l-483.555556 0q-170.666667 0-170.666666-170.666667l0-412.444445q0-170.666667 170.666666-170.666666Z" fill="#FEF6EE" p-id="1230"></path><path d="M142.222222 99.555556m170.666667 0l398.222222 0q170.666667 0 170.666667 170.666666l0 369.777778q0 170.666667-170.666667 170.666667l-398.222222 0q-170.666667 0-170.666667-170.666667l0-369.777778q0-170.666667 170.666667-170.666666Z" fill="#933129" p-id="1231"></path><path d="M142.222222 99.555556m170.666667 0l398.222222 0q170.666667 0 170.666667 170.666666l0 341.333334q0 170.666667-170.666667 170.666666l-398.222222 0q-170.666667 0-170.666667-170.666666l0-341.333334q0-170.666667 170.666667-170.666666Z" fill="#FF6400" p-id="1232"></path><path d="M711.111111 99.555556c94.250667 0 170.666667 76.416 170.666667 170.666666v341.333334c0 94.250667-76.416 170.666667-170.666667 170.666666H512V99.555556h199.111111z" fill="#D34C09" p-id="1233"></path><path d="M355.555556 227.555556m14.222222 0l85.333333 0q14.222222 0 14.222222 14.222222l0 0q0 14.222222-14.222222 14.222222l-85.333333 0q-14.222222 0-14.222222-14.222222l0 0q0-14.222222 14.222222-14.222222Z" fill="#A03724" p-id="1234"></path><path d="M355.555556 298.666667m14.222222 0l85.333333 0q14.222222 0 14.222222 14.222222l0 0q0 14.222222-14.222222 14.222222l-85.333333 0q-14.222222 0-14.222222-14.222222l0 0q0-14.222222 14.222222-14.222222Z" fill="#A03724" p-id="1235"></path><path d="M199.111111 384m14.222222 0l241.777778 0q14.222222 0 14.222222 14.222222l0 0q0 14.222222-14.222222 14.222222l-241.777778 0q-14.222222 0-14.222222-14.222222l0 0q0-14.222222 14.222222-14.222222Z" fill="#A03724" p-id="1236"></path><path d="M568.888889 384m14.222222 0l241.777778 0q14.222222 0 14.222222 14.222222l0 0q0 14.222222-14.222222 14.222222l-241.777778 0q-14.222222 0-14.222222-14.222222l0 0q0-14.222222 14.222222-14.222222Z" fill="#A03724" p-id="1237"></path><path d="M568.888889 312.888889m14.222222 0l241.777778 0q14.222222 0 14.222222 14.222222l0 0q0 14.222222-14.222222 14.222222l-241.777778 0q-14.222222 0-14.222222-14.222222l0 0q0-14.222222 14.222222-14.222222Z" fill="#A03724" p-id="1238"></path><path d="M568.888889 227.555556m14.222222 0l241.777778 0q14.222222 0 14.222222 14.222222l0 0q0 14.222222-14.222222 14.222222l-241.777778 0q-14.222222 0-14.222222-14.222222l0 0q0-14.222222 14.222222-14.222222Z" fill="#A03724" p-id="1239"></path><path d="M199.111111 455.111111m14.222222 0l241.777778 0q14.222222 0 14.222222 14.222222l0 0q0 14.222222-14.222222 14.222223l-241.777778 0q-14.222222 0-14.222222-14.222223l0 0q0-14.222222 14.222222-14.222222Z" fill="#A03724" p-id="1240"></path><path d="M568.888889 455.111111m14.222222 0l241.777778 0q14.222222 0 14.222222 14.222222l0 0q0 14.222222-14.222222 14.222223l-241.777778 0q-14.222222 0-14.222222-14.222223l0 0q0-14.222222 14.222222-14.222222Z" fill="#A03724" p-id="1241"></path><path d="M199.111111 526.222222m14.222222 0l241.777778 0q14.222222 0 14.222222 14.222222l0 0q0 14.222222-14.222222 14.222223l-241.777778 0q-14.222222 0-14.222222-14.222223l0 0q0-14.222222 14.222222-14.222222Z" fill="#A03724" p-id="1242"></path><path d="M568.888889 526.222222m14.222222 0l241.777778 0q14.222222 0 14.222222 14.222222l0 0q0 14.222222-14.222222 14.222223l-241.777778 0q-14.222222 0-14.222222-14.222223l0 0q0-14.222222 14.222222-14.222222Z" fill="#A03724" p-id="1243"></path><path d="M199.111111 597.333333m14.222222 0l241.777778 0q14.222222 0 14.222222 14.222223l0 0q0 14.222222-14.222222 14.222222l-241.777778 0q-14.222222 0-14.222222-14.222222l0 0q0-14.222222 14.222222-14.222223Z" fill="#A03724" p-id="1244"></path><path d="M568.888889 597.333333m14.222222 0l241.777778 0q14.222222 0 14.222222 14.222223l0 0q0 14.222222-14.222222 14.222222l-241.777778 0q-14.222222 0-14.222222-14.222222l0 0q0-14.222222 14.222222-14.222223Z" fill="#A03724" p-id="1245"></path><path d="M199.111111 668.444444m14.222222 0l241.777778 0q14.222222 0 14.222222 14.222223l0 0q0 14.222222-14.222222 14.222222l-241.777778 0q-14.222222 0-14.222222-14.222222l0 0q0-14.222222 14.222222-14.222223Z" fill="#A03724" p-id="1246"></path><path d="M568.888889 668.444444m14.222222 0l241.777778 0q14.222222 0 14.222222 14.222223l0 0q0 14.222222-14.222222 14.222222l-241.777778 0q-14.222222 0-14.222222-14.222222l0 0q0-14.222222 14.222222-14.222223Z" fill="#A03724" p-id="1247"></path><path d="M611.555556 99.555556h142.222222v796.444444l-71.111111-42.666667-71.111111 42.666667z" fill="#0A3E47" p-id="1248"></path><path d="M278.442667 299.335111l-13.326223-44.003555-12.672 44.003555h25.998223zM240.440889 341.333333h-39.324445l43.989334-122.666666h40.675555L329.770667 341.333333h-39.992889l-4.664889-16h-40.007111L240.440889 341.333333z" fill="#0A3E47" p-id="1249"></path></svg>