<?xml version="1.0" standalone="no"?><!DOCTYPE svg PUBLIC "-//W3C//DTD SVG 1.1//EN" "http://www.w3.org/Graphics/SVG/1.1/DTD/svg11.dtd"><svg t="1758701664307" class="icon" viewBox="0 0 1024 1024" version="1.1" xmlns="http://www.w3.org/2000/svg" p-id="1394" xmlns:xlink="http://www.w3.org/1999/xlink" width="200" height="200"><path d="M99.555556 99.555556m170.666666 0l483.555556 0q170.666667 0 170.666666 170.666666l0 483.555556q0 170.666667-170.666666 170.666666l-483.555556 0q-170.666667 0-170.666666-170.666666l0-483.555556q0-170.666667 170.666666-170.666666Z" fill="#E4DCD5" p-id="1395"></path><path d="M99.555556 99.555556m170.666666 0l483.555556 0q170.666667 0 170.666666 170.666666l0 412.444445q0 170.666667-170.666666 170.666666l-483.555556 0q-170.666667 0-170.666666-170.666666l0-412.444445q0-170.666667 170.666666-170.666666Z" fill="#FEF6EE" p-id="1396"></path><path d="M99.555556 341.333333h824.888888v312.888889H99.555556z" fill="#C6BDB6" p-id="1397"></path><path d="M99.555556 341.333333h824.888888v284.444445H99.555556z" fill="#FF6400" p-id="1398"></path><path d="M707.527111 341.319111A240.682667 240.682667 0 0 1 753.777778 483.555556c0 53.162667-17.152 102.314667-46.222222 142.222222h-391.111112A240.682667 240.682667 0 0 1 270.222222 483.555556c0-53.162667 17.166222-102.328889 46.250667-142.236445z" fill="#933129" p-id="1399"></path><path d="M512 483.555556m-199.111111 0a199.111111 199.111111 0 1 0 398.222222 0 199.111111 199.111111 0 1 0-398.222222 0Z" fill="#E4DCD5" p-id="1400"></path><path d="M512 483.555556m-184.888889 0a184.888889 184.888889 0 1 0 369.777778 0 184.888889 184.888889 0 1 0-369.777778 0Z" fill="#FFF6EE" p-id="1401"></path><path d="M512 483.555556m-142.222222 0a142.222222 142.222222 0 1 0 284.444444 0 142.222222 142.222222 0 1 0-284.444444 0Z" fill="#0F2830" p-id="1402"></path><path d="M512 483.555556m-128 0a128 128 0 1 0 256 0 128 128 0 1 0-256 0Z" fill="#0A3E47" p-id="1403"></path><path d="M554.666667 455.111111m-42.666667 0a42.666667 42.666667 0 1 0 85.333333 0 42.666667 42.666667 0 1 0-85.333333 0Z" fill="#0C646D" p-id="1404"></path><path d="M199.111111 184.888889m56.888889 0l0 0q56.888889 0 56.888889 56.888889l0 0q0 56.888889-56.888889 56.888889l0 0q-56.888889 0-56.888889-56.888889l0 0q0-56.888889 56.888889-56.888889Z" fill="#FF6400" p-id="1405"></path><path d="M711.111111 184.888889m14.222222 0l85.333334 0q14.222222 0 14.222222 14.222222l0 71.111111q0 14.222222-14.222222 14.222222l-85.333334 0q-14.222222 0-14.222222-14.222222l0-71.111111q0-14.222222 14.222222-14.222222Z" fill="#0A3E47" p-id="1406"></path><path d="M725.333333 199.111111m7.111111 0l71.111112 0q7.111111 0 7.111111 7.111111l0 0q0 7.111111-7.111111 7.111111l-71.111112 0q-7.111111 0-7.111111-7.111111l0 0q0-7.111111 7.111111-7.111111Z" fill="#FF6400" p-id="1407"></path><path d="M725.333333 227.555556m7.111111 0l71.111112 0q7.111111 0 7.111111 7.111111l0 0q0 7.111111-7.111111 7.111111l-71.111112 0q-7.111111 0-7.111111-7.111111l0 0q0-7.111111 7.111111-7.111111Z" fill="#FF6400" p-id="1408"></path><path d="M725.333333 256m7.111111 0l71.111112 0q7.111111 0 7.111111 7.111111l0 0q0 7.111111-7.111111 7.111111l-71.111112 0q-7.111111 0-7.111111-7.111111l0 0q0-7.111111 7.111111-7.111111Z" fill="#FF6400" p-id="1409"></path></svg>