<?xml version="1.0" standalone="no"?><!DOCTYPE svg PUBLIC "-//W3C//DTD SVG 1.1//EN" "http://www.w3.org/Graphics/SVG/1.1/DTD/svg11.dtd"><svg t="1758701699275" class="icon" viewBox="0 0 1024 1024" version="1.1" xmlns="http://www.w3.org/2000/svg" p-id="1870" xmlns:xlink="http://www.w3.org/1999/xlink" width="200" height="200"><path d="M99.555556 99.555556m170.666666 0l483.555556 0q170.666667 0 170.666666 170.666666l0 483.555556q0 170.666667-170.666666 170.666666l-483.555556 0q-170.666667 0-170.666666-170.666666l0-483.555556q0-170.666667 170.666666-170.666666Z" fill="#E4DCD5" p-id="1871"></path><path d="M99.555556 99.555556m170.666666 0l483.555556 0q170.666667 0 170.666666 170.666666l0 412.444445q0 170.666667-170.666666 170.666666l-483.555556 0q-170.666667 0-170.666666-170.666666l0-412.444445q0-170.666667 170.666666-170.666666Z" fill="#FEF6EE" p-id="1872"></path><path d="M526.222222 227.555556c141.383111 0 256 114.616889 256 256s-114.616889 256-256 256-256-114.616889-256-256 114.616889-256 256-256z m0 28.444444c-125.681778 0-227.555556 101.873778-227.555555 227.555556s101.873778 227.555556 227.555555 227.555555 227.555556-101.873778 227.555556-227.555555-101.873778-227.555556-227.555556-227.555556z" fill="#0A3E47" p-id="1873"></path><path d="M705.735111 224.142222a28.444444 28.444444 0 0 1 28.444445 28.444445V590.222222c0 35.342222-38.200889 64-85.333334 64-47.118222 0-85.333333-28.657778-85.333333-64s38.215111-64 85.333333-64c21.475556 0 41.102222 5.944889 56.106667 15.772445l-0.028445-162.133334a14.222222 14.222222 0 0 0-18.759111-13.482666l-242.915555 81.735111a14.222222 14.222222 0 0 0-9.685334 13.482666v222.947556l0.042667 1.592889c0 0.526222 0 1.052444-0.028444 1.592889l-0.014223 0.597333c-1.564444 34.346667-39.153778 61.809778-85.290666 61.809778-47.132444 0-85.333333-28.657778-85.333334-64s38.200889-64 85.333334-64c21.162667 0 40.533333 5.774222 55.438222 15.345778v-295.395556a28.444444 28.444444 0 0 1 19.598222-27.036444L696.888889 225.550222a28.444444 28.444444 0 0 1 8.846222-1.422222z" fill="#933129" p-id="1874"></path><path d="M691.512889 209.92a28.444444 28.444444 0 0 1 28.444444 28.444444V576c0 35.342222-38.200889 64-85.333333 64-47.118222 0-85.333333-28.657778-85.333333-64s38.215111-64 85.333333-64c21.475556 0 41.102222 5.944889 56.106667 15.772444l-0.028445-162.133333a14.222222 14.222222 0 0 0-18.759111-13.482667l-242.915555 81.735112a14.222222 14.222222 0 0 0-9.685334 13.482666v222.947556l0.042667 1.592889c0 0.526222 0 1.052444-0.028445 1.592889l-0.014222 0.597333c-1.564444 34.346667-39.153778 61.809778-85.290666 61.809778-47.132444 0-85.333333-28.657778-85.333334-64s38.200889-64 85.333334-64c21.162667 0 40.533333 5.774222 55.438222 15.345777v-295.395555a28.444444 28.444444 0 0 1 19.598222-27.036445L682.666667 211.328a28.444444 28.444444 0 0 1 8.846222-1.422222z" fill="#FF6400" p-id="1875"></path></svg>