<?xml version="1.0" standalone="no"?><!DOCTYPE svg PUBLIC "-//W3C//DTD SVG 1.1//EN" "http://www.w3.org/Graphics/SVG/1.1/DTD/svg11.dtd"><svg t="1758701688780" class="icon" viewBox="0 0 1024 1024" version="1.1" xmlns="http://www.w3.org/2000/svg" p-id="1717" xmlns:xlink="http://www.w3.org/1999/xlink" width="200" height="200"><path d="M99.555556 113.777778m170.666666 0l483.555556 0q170.666667 0 170.666666 170.666666l0 483.555556q0 170.666667-170.666666 170.666667l-483.555556 0q-170.666667 0-170.666666-170.666667l0-483.555556q0-170.666667 170.666666-170.666666Z" fill="#E4DCD5" p-id="1718"></path><path d="M99.555556 113.777778m170.666666 0l483.555556 0q170.666667 0 170.666666 170.666666l0 426.666667q0 170.666667-170.666666 170.666667l-483.555556 0q-170.666667 0-170.666666-170.666667l0-426.666667q0-170.666667 170.666666-170.666666Z" fill="#FEF6EE" p-id="1719"></path><path d="M355.555556 398.222222m71.111111 0l327.111111 0q71.111111 0 71.111111 71.111111l0 113.777778q0 71.111111-71.111111 71.111111l-327.111111 0q-71.111111 0-71.111111-71.111111l0-113.777778q0-71.111111 71.111111-71.111111Z" fill="#0F2830" p-id="1720"></path><path d="M355.555556 426.666667m71.111111 0l327.111111 0q71.111111 0 71.111111 71.111111l0 85.333333q0 71.111111-71.111111 71.111111l-327.111111 0q-71.111111 0-71.111111-71.111111l0-85.333333q0-71.111111 71.111111-71.111111Z" fill="#0A3E47" p-id="1721"></path><path d="M213.333333 355.555556m56.888889 0l227.555556 0q56.888889 0 56.888889 56.888888l0 227.555556q0 56.888889-56.888889 56.888889l-227.555556 0q-56.888889 0-56.888889-56.888889l0-227.555556q0-56.888889 56.888889-56.888888Z" fill="#933129" p-id="1722"></path><path d="M213.333333 355.555556m56.888889 0l227.555556 0q56.888889 0 56.888889 56.888888l0 199.111112q0 56.888889-56.888889 56.888888l-227.555556 0q-56.888889 0-56.888889-56.888888l0-199.111112q0-56.888889 56.888889-56.888888Z" fill="#FF6400" p-id="1723"></path><path d="M304.270222 518.727111a21.333333 21.333333 0 0 1 30.165334 0l25.230222 25.230222 95.587555-95.601777a21.333333 21.333333 0 1 1 30.179556 30.165333l-110.620445 110.634667a21.304889 21.304889 0 0 1-17.976888 6.044444l-0.142223-0.014222a21.233778 21.233778 0 0 1-12.202666-6.058667l-40.220445-40.220444a21.333333 21.333333 0 0 1 0-30.179556z" fill="#0A3E47" p-id="1724"></path><path d="M611.555556 517.774222c-10.069333 0.298667-15.402667 7.850667-16 22.670222 0.597333 15.402667 5.930667 23.253333 16 23.552 10.666667-0.284444 16.142222-8.149333 16.440888-23.552-0.583111-15.118222-6.072889-22.670222-16.440888-22.670222zM611.555556 497.777778c26.965333 1.180444 41.329778 15.402667 43.107555 42.666666-1.180444 27.264-15.544889 41.486222-43.107555 42.666667-27.562667-0.896-41.784889-15.260444-42.666667-43.107555 1.479111-26.666667 15.701333-40.746667 42.666667-42.225778zM694.229333 581.774222h-26.680889v-81.777778h63.573334V519.111111h-36.892445v14.663111h29.326223v19.114667h-29.340445zM769.777778 581.774222H743.111111v-81.777778h63.559111V519.111111h-36.892444v14.663111h29.340444v19.114667h-29.340444z" fill="#0F2830" p-id="1725"></path></svg>